<svg xmlns="http://www.w3.org/2000/svg" width="500" height="400" viewBox="0 0 500 400">
  <rect width="500" height="400" fill="#FDF2ED" rx="20"/>
  <!-- Title -->
  <text x="250" y="40" font-family="system-ui" font-size="22" font-weight="bold" fill="#333" text-anchor="middle">Configuratie Opties</text>
  <!-- Entry Tier -->
  <rect x="30" y="100" width="130" height="180" fill="#FFF" rx="10" stroke="#DDD" stroke-width="1.5"/>
  <rect x="30" y="100" width="130" height="45" fill="#B0B0B0" rx="10"/>
  <rect x="30" y="125" width="130" height="20" fill="#B0B0B0"/>
  <text x="95" y="128" font-family="system-ui" font-size="15" font-weight="bold" fill="#FFF" text-anchor="middle">Entry</text>
  <!-- Server icon small -->
  <rect x="62" y="160" width="66" height="30" fill="#E0E0E0" rx="4" stroke="#BBB" stroke-width="1"/>
  <rect x="68" y="166" width="8" height="18" fill="#CCC" rx="1"/>
  <rect x="79" y="166" width="8" height="18" fill="#CCC" rx="1"/>
  <rect x="90" y="166" width="8" height="18" fill="#CCC" rx="1"/>
  <circle cx="118" cy="170" r="3" fill="#4CAF50"/>
  <!-- Specs -->
  <text x="95" y="215" font-family="system-ui" font-size="12" font-weight="bold" fill="#555" text-anchor="middle">1x CPU</text>
  <text x="95" y="235" font-family="system-ui" font-size="12" fill="#777" text-anchor="middle">64 GB RAM</text>
  <text x="95" y="255" font-family="system-ui" font-size="12" fill="#777" text-anchor="middle">SAS HDD</text>
  <!-- Standard Tier -->
  <rect x="185" y="75" width="130" height="220" fill="#FFF" rx="10" stroke="#E57035" stroke-width="2"/>
  <rect x="185" y="75" width="130" height="45" fill="#E57035" rx="10"/>
  <rect x="185" y="100" width="130" height="20" fill="#E57035"/>
  <text x="250" y="103" font-family="system-ui" font-size="15" font-weight="bold" fill="#FFF" text-anchor="middle">Standard</text>
  <!-- Server icon medium -->
  <rect x="210" y="135" width="80" height="40" fill="#E0E0E0" rx="4" stroke="#BBB" stroke-width="1"/>
  <rect x="217" y="142" width="9" height="26" fill="#CCC" rx="1"/>
  <rect x="229" y="142" width="9" height="26" fill="#CCC" rx="1"/>
  <rect x="241" y="142" width="9" height="26" fill="#CCC" rx="1"/>
  <rect x="253" y="142" width="9" height="26" fill="#CCC" rx="1"/>
  <circle cx="278" cy="147" r="3" fill="#4CAF50"/>
  <circle cx="278" cy="157" r="3" fill="#2196F3"/>
  <!-- Specs -->
  <text x="250" y="200" font-family="system-ui" font-size="12" font-weight="bold" fill="#555" text-anchor="middle">2x CPU</text>
  <text x="250" y="220" font-family="system-ui" font-size="12" fill="#777" text-anchor="middle">256 GB RAM</text>
  <text x="250" y="240" font-family="system-ui" font-size="12" fill="#777" text-anchor="middle">SAS SSD</text>
  <!-- Popular badge -->
  <rect x="207" y="60" width="86" height="22" fill="#E57035" rx="11"/>
  <text x="250" y="75" font-family="system-ui" font-size="10" font-weight="bold" fill="#FFF" text-anchor="middle">POPULAIR</text>
  <!-- Advanced Tier -->
  <rect x="340" y="55" width="130" height="255" fill="#FFF" rx="10" stroke="#DDD" stroke-width="1.5"/>
  <rect x="340" y="55" width="130" height="45" fill="#333" rx="10"/>
  <rect x="340" y="80" width="130" height="20" fill="#333"/>
  <text x="405" y="83" font-family="system-ui" font-size="15" font-weight="bold" fill="#FFF" text-anchor="middle">Advanced</text>
  <!-- Server icon large -->
  <rect x="360" y="115" width="90" height="55" fill="#E0E0E0" rx="4" stroke="#BBB" stroke-width="1"/>
  <rect x="367" y="122" width="10" height="20" fill="#CCC" rx="1"/>
  <rect x="380" y="122" width="10" height="20" fill="#CCC" rx="1"/>
  <rect x="393" y="122" width="10" height="20" fill="#CCC" rx="1"/>
  <rect x="406" y="122" width="10" height="20" fill="#CCC" rx="1"/>
  <rect x="419" y="122" width="10" height="20" fill="#CCC" rx="1"/>
  <rect x="367" y="146" width="10" height="20" fill="#CCC" rx="1"/>
  <rect x="380" y="146" width="10" height="20" fill="#CCC" rx="1"/>
  <rect x="393" y="146" width="10" height="20" fill="#CCC" rx="1"/>
  <rect x="406" y="146" width="10" height="20" fill="#CCC" rx="1"/>
  <rect x="419" y="146" width="10" height="20" fill="#CCC" rx="1"/>
  <circle cx="438" cy="126" r="3" fill="#4CAF50"/>
  <circle cx="438" cy="136" r="3" fill="#2196F3"/>
  <circle cx="438" cy="146" r="3" fill="#FFC107"/>
  <!-- Specs -->
  <text x="405" y="195" font-family="system-ui" font-size="12" font-weight="bold" fill="#555" text-anchor="middle">2x CPU</text>
  <text x="405" y="215" font-family="system-ui" font-size="12" fill="#777" text-anchor="middle">512 GB RAM</text>
  <text x="405" y="235" font-family="system-ui" font-size="12" fill="#777" text-anchor="middle">NVMe SSD</text>
  <text x="405" y="255" font-family="system-ui" font-size="11" fill="#E57035" text-anchor="middle">GPU Ready</text>
  <!-- Bottom labels -->
  <text x="250" y="355" font-family="system-ui" font-size="13" fill="#999" text-anchor="middle">Alle configuraties inclusief management en monitoring</text>
  <!-- Ascending arrow hint -->
  <line x1="80" y1="330" x2="420" y2="330" stroke="#DDD" stroke-width="1.5"/>
  <polygon points="420,325 435,330 420,335" fill="#DDD"/>
  <text x="250" y="380" font-family="system-ui" font-size="11" fill="#BBB" text-anchor="middle">Performance</text>
</svg>