<svg xmlns="http://www.w3.org/2000/svg" width="500" height="400" viewBox="0 0 500 400">
  <rect width="500" height="400" rx="20" fill="#FDF2ED"/>

  <!-- Left column: VCF 5.x -->
  <rect x="30" y="60" width="200" height="300" rx="10" fill="white" stroke="#E57035" stroke-width="2"/>
  <rect x="30" y="60" width="200" height="30" rx="10" fill="#E57035" opacity="0.15"/>
  <rect x="30" y="78" width="200" height="12" fill="#E57035" opacity="0.15"/>
  <text x="130" y="80" text-anchor="middle" font-family="system-ui" font-size="13" font-weight="bold" fill="#E57035">VCF 5.x</text>

  <!-- Left sub-boxes -->
  <rect x="45" y="100" width="170" height="38" rx="6" fill="white" stroke="#E57035" stroke-width="1.5"/>
  <text x="130" y="124" text-anchor="middle" font-family="system-ui" font-size="11" font-weight="bold" fill="#E57035">SDDC Manager</text>

  <rect x="45" y="148" width="170" height="38" rx="6" fill="white" stroke="#E57035" stroke-width="1.5"/>
  <text x="130" y="172" text-anchor="middle" font-family="system-ui" font-size="11" font-weight="bold" fill="#E57035">Aria Operations</text>

  <rect x="45" y="196" width="170" height="38" rx="6" fill="white" stroke="#E57035" stroke-width="1.5"/>
  <text x="130" y="220" text-anchor="middle" font-family="system-ui" font-size="11" font-weight="bold" fill="#E57035">Aria Automation</text>

  <rect x="45" y="244" width="170" height="38" rx="6" fill="white" stroke="#E57035" stroke-width="1.5"/>
  <text x="130" y="262" text-anchor="middle" font-family="system-ui" font-size="10" font-weight="bold" fill="#E57035">Aria Suite Lifecycle</text>
  <text x="130" y="275" text-anchor="middle" font-family="system-ui" font-size="9" fill="#E57035">(ASLCM)</text>

  <rect x="45" y="292" width="170" height="38" rx="6" fill="white" stroke="#E57035" stroke-width="1.5"/>
  <text x="130" y="316" text-anchor="middle" font-family="system-ui" font-size="11" font-weight="bold" fill="#E57035">Aria Operations for Logs</text>

  <!-- Right column: VCF 9 -->
  <rect x="270" y="60" width="200" height="300" rx="10" fill="white" stroke="#E57035" stroke-width="2"/>
  <rect x="270" y="60" width="200" height="30" rx="10" fill="#E57035" opacity="0.15"/>
  <rect x="270" y="78" width="200" height="12" fill="#E57035" opacity="0.15"/>
  <text x="370" y="80" text-anchor="middle" font-family="system-ui" font-size="13" font-weight="bold" fill="#E57035">VCF 9</text>

  <!-- VCF Operations (large target) -->
  <rect x="285" y="100" width="170" height="120" rx="8" fill="#E57035" fill-opacity="0.08" stroke="#E57035" stroke-width="2"/>
  <text x="370" y="140" text-anchor="middle" font-family="system-ui" font-size="12" font-weight="bold" fill="#E57035">VCF Operations</text>
  <text x="370" y="165" text-anchor="middle" font-family="system-ui" font-size="9" fill="#E57035">+ Logs + Identity</text>
  <text x="370" y="182" text-anchor="middle" font-family="system-ui" font-size="9" fill="#E57035">+ Lifecycle + Licensing</text>

  <!-- VCF Automation (smaller target) -->
  <rect x="285" y="240" width="170" height="80" rx="8" fill="#E57035" fill-opacity="0.08" stroke="#E57035" stroke-width="2"/>
  <text x="370" y="275" text-anchor="middle" font-family="system-ui" font-size="12" font-weight="bold" fill="#E57035">VCF Automation</text>
  <text x="370" y="295" text-anchor="middle" font-family="system-ui" font-size="9" fill="#E57035">Service Broker · Cloud Assembly</text>

  <!-- Dashed arrows from left to right -->
  <line x1="215" y1="119" x2="285" y2="140" stroke="#E57035" stroke-width="1.5" stroke-dasharray="4,3"/>
  <line x1="215" y1="167" x2="285" y2="155" stroke="#E57035" stroke-width="1.5" stroke-dasharray="4,3"/>
  <line x1="215" y1="215" x2="285" y2="275" stroke="#E57035" stroke-width="1.5" stroke-dasharray="4,3"/>
  <line x1="215" y1="263" x2="285" y2="175" stroke="#E57035" stroke-width="1.5" stroke-dasharray="4,3"/>
  <line x1="215" y1="311" x2="285" y2="195" stroke="#E57035" stroke-width="1.5" stroke-dasharray="4,3"/>
</svg>
